# xmcd
#
# Track frame offsets:
# 150
# 22430
# 40424
# 55234
# 76110
# 94654
# 109174
# 124740
# 141915
# 161594
#
# Disc length: 2573 seconds
#
#
# Revision: 1
# Processed by: cddbd v1.5.1PL0 Copyright (c) Steve Scherf et al.
# Submitted via: FreeRIP 2.90 
#
DISCID=860a0b0a
DTITLE=Mahogany Rush - Strange Universe
DYEAR=1975
DGENRE=Rock
TTITLE0=Tales Of Spanish Warrior
TTITLE1=The King Who Stole (... The Universe)
TTITLE2=Satisfy Your Soul
TTITLE3=Land Of 1000 Nights
TTITLE4=Moonlight Lady
TTITLE5=Dancing Lady
TTITLE6=Once Again
TTITLE7=Tryin' Anyway
TTITLE8=Dear Music
TTITLE9=Strange Universe
EXTD=
EXTT0=
EXTT1=
EXTT2=
EXTT3=
EXTT4=
EXTT5=
EXTT6=
EXTT7=
EXTT8=
EXTT9=
PLAYORDER=
